PathFileType	4	(X/Y/Z)	G:\GRF\jawan data\CompiledGRF\03. Mohit Kumar\0231~ac~Walking 05_markers.trc
DataRate	CameraRate	NumFrames	NumMarkers	Units	OrigDataRate	OrigDataStartFrame	OrigNumFrames
100.000000	100.000000	6	18	mm	100.000000	578	926
Frame#	Time	c7			r should			l should			sacrum			r asis			r bar 1			r knee 1			r bar 2			r mall			r heel			r met			l asis			l bar 1			l knee 1			l bar 2			l mall			l heel			l met			
		X1	Y1	Z1	X2	Y2	Z2	X3	Y3	Z3	X4	Y4	Z4	X5	Y5	Z5	X6	Y6	Z6	X7	Y7	Z7	X8	Y8	Z8	X9	Y9	Z9	X10	Y10	Z10	X11	Y11	Z11	X12	Y12	Z12	X13	Y13	Z13	X14	Y14	Z14	X15	Y15	Z15	X16	Y16	Z16	X17	Y17	Z17	X18	Y18	Z18	

579	5.78	nan	nan	nan	268.8333129882813	1461.660766601563	36.4521598815918	273.5768432617188	1472.332641601563	382.7929077148438	406.3304138183594	1056.286865234375	225.5182342529297	230.4427642822266	1022.016418457031	96.48044586181641	240.7849273681641	612.5131225585938	3.431572914123535	210.9110107421875	531.6138305664063	41.84573745727539	462.6588134765625	337.0681762695313	38.79084396362305	539.0638427734375	228.4592742919922	98.67756652832031	594.9343872070313	240.2511596679688	159.3278656005859	473.5339050292969	99.61393737792969	87.17946624755859	220.2505798339844	1030.878662109375	346.366943359375	259.4580078125	600.43310546875	392.0599670410156	246.9027862548828	517.1369018554688	328.3796997070313	295.8684692382813	238.5481109619141	363.660400390625	315.7087707519531	73.4012451171875	284.6556091308594	381.9268493652344	36.45856857299805	240.4358673095703	173.9017791748047	39.67621231079102	246.1421813964844	
580	5.79	nan	nan	nan	260.0590209960938	1462.166870117188	37.04613494873047	265.4618835449219	1472.929443359375	383.2346496582031	398.58740234375	1056.781005859375	225.1593017578125	221.7549743652344	1022.999755859375	97.13283538818359	224.0631408691406	614.02880859375	3.590701818466187	193.5047454833984	533.6780395507813	42.77550888061523	441.4472961425781	334.1312255859375	38.22467422485352	516.1141967773438	223.5600280761719	97.57485198974609	572.9281616210938	232.9690551757813	157.4643096923828	445.1317138671875	98.14962768554688	86.15768432617188	213.0747528076172	1030.79931640625	347.1571044921875	256.3256530761719	600.2981567382813	392.1713256835938	244.4111328125	516.8086547851563	328.491943359375	295.026611328125	238.732421875	363.6649780273438	315.5363464355469	73.60319519042969	284.6073303222656	381.9325561523438	36.76179504394531	240.0223388671875	173.7765502929688	39.68037033081055	246.2092132568359	
581	5.8	nan	nan	nan	251.4488067626953	1462.547729492188	37.56974029541016	257.3461303710938	1473.465576171875	383.65087890625	390.5994873046875	1057.087768554688	224.8259735107422	213.0873870849609	1023.857360839844	97.67262268066406	207.9272155761719	615.5517578125	3.819592714309692	176.5938873291016	535.6197509765625	43.71879577636719	419.849365234375	330.4600524902344	37.64756011962891	492.6349182128906	217.9782409667969	96.60601806640625	550.4361572265625	224.8702239990234	156.0483856201172	416.0104370117188	96.33289337158203	85.17279052734375	205.6044464111328	1030.726318359375	347.7976379394531	253.0513458251953	600.2193603515625	392.229248046875	241.8463897705078	516.519775390625	328.55517578125	294.4525146484375	238.9023590087891	363.5881042480469	315.4933471679688	73.75588989257813	284.5149841308594	382.2393798828125	37.10781860351563	240.0120544433594	173.7457885742188	39.59562301635742	246.2916870117188	
582	5.81	nan	nan	nan	243.0403289794922	1462.74462890625	38.09729766845703	248.9301910400391	1473.8486328125	384.0896606445313	382.6364135742188	1057.169799804688	224.4940185546875	204.909423828125	1024.491943359375	98.07421112060547	192.1163635253906	617.0237426757813	4.104637622833252	159.6843872070313	537.56298828125	44.82102203369141	398.192626953125	326.0281066894531	37.05648040771484	468.5116271972656	211.7290496826172	95.77955627441406	527.0812377929688	215.8196258544922	154.9368438720703	386.658447265625	93.98088073730469	84.19668579101563	198.0787200927734	1030.531616210938	348.2686157226563	249.5071411132813	600.1841430664063	392.1372375488281	239.3728637695313	516.1790161132813	328.518798828125	293.84521484375	239.0939331054688	363.4428405761719	315.4380187988281	73.93724060058594	284.406005859375	382.4248657226563	37.47700119018555	239.8633117675781	173.7339172363281	39.54748916625977	246.4068298339844	
583	5.82	nan	nan	nan	234.6719360351563	1462.84375	38.50205612182617	240.7810974121094	1473.944946289063	384.4160461425781	374.8588562011719	1057.131103515625	224.0948638916016	196.4982452392578	1025.008666992188	98.47309112548828	176.5861358642578	618.4467163085938	4.601532459259033	143.320068359375	539.3186645507813	45.92891311645508	375.9606323242188	320.8492431640625	36.50554656982422	443.623291015625	204.9002990722656	95.151611328125	502.5269470214844	206.0218048095703	153.9957885742188	356.0059204101563	91.64175415039063	83.13471984863281	191.4319915771484	1030.04296875	348.7016296386719	245.8467407226563	600.0481567382813	391.9227294921875	236.7317199707031	515.81396484375	328.4292907714844	293.0982666015625	239.2302093505859	363.3046264648438	315.3606567382813	74.08169555664063	284.2480773925781	382.3399047851563	37.67941665649414	239.3770751953125	173.7783508300781	39.5410270690918	246.4891052246094	
584	5.83	nan	nan	nan	226.3939056396484	1462.8037109375	38.93181991577148	232.9106597900391	1473.781127929688	384.7130126953125	367.0067749023438	1057.091796875	223.6846313476563	188.0662689208984	1025.394165039063	98.81328582763672	161.8373565673828	619.8601684570313	5.14913272857666	127.2847213745117	541.2306518554688	47.00008010864258	353.4791564941406	315.109619140625	35.96731948852539	418.0592346191406	197.4398498535156	94.55234527587891	477.5833740234375	195.8352203369141	153.2507934570313	324.0746154785156	89.40644836425781	81.98381042480469	184.9454956054688	1029.429931640625	349.0896911621094	242.2037811279297	599.8472900390625	391.7521362304688	233.6964721679688	515.5675659179688	328.3263244628906	292.078125	239.3621215820313	363.14794921875	315.2377319335938	74.24370574951172	284.1079711914063	382.2275695800781	37.99954986572266	238.8048553466797	173.756591796875	39.50653457641602	246.5222625732422	
